<svg width="13" height="13" viewBox="0 0 13 13" fill="none" xmlns="http://www.w3.org/2000/svg">
<path d="M12.7726 11.5817L9.69772 8.509C10.4073 7.56356 10.7226 6.53937 10.7226 5.35756C10.7226 3.9394 10.1708 2.59997 9.14574 1.57579C8.12083 0.551599 6.78047 0 5.36131 0C3.94215 0 2.60179 0.551464 1.57689 1.57579C0.551985 2.59997 0 3.9394 0 5.35756C0 6.77573 0.55185 8.11516 1.57689 9.13934C2.60179 10.1635 3.94215 10.7151 5.36131 10.7151C6.54394 10.7151 7.64778 10.3211 8.51495 9.69094L11.5898 12.7636C11.7475 12.9213 11.9841 13 12.1416 13C12.2994 13 12.5359 12.9213 12.6935 12.7636C13.0879 12.3695 13.0879 11.8181 12.7726 11.5817H12.7726ZM5.36118 9.06047C4.33627 9.06047 3.39017 8.66649 2.68059 7.9574C1.97101 7.24845 1.65569 6.30301 1.65569 5.27869C1.65569 4.2545 2.04994 3.30906 2.75952 2.59997C3.46896 1.89089 4.33627 1.57579 5.36118 1.57579C6.38608 1.57579 7.33219 1.96977 8.04176 2.67885C8.75134 3.38793 9.1456 4.33338 9.1456 5.35756C9.1456 6.38175 8.75134 7.3272 8.04176 8.03628C7.33232 8.74536 6.38621 9.06047 5.36118 9.06047Z" fill="white"/>
</svg>
